<svg width="13" height="14" viewBox="0 0 13 14" fill="none" xmlns="http://www.w3.org/2000/svg">
<path d="M2.34 1.52V0.24H1.7V1.52H2.34ZM10.02 1.52V0.24H9.38V1.52H10.02ZM11.94 3.44V2.16H11.3V0.24H10.66V2.8H11.3V3.44H11.94ZM11.94 6.64V4.72H11.3V4.08H10.66V3.44H9.38V4.08H10.02V4.72H10.66V5.36H11.3V6.64H11.94ZM11.94 9.2V7.92H11.3V7.28H10.02V7.92H10.66V8.56H11.3V9.2H11.94ZM6.82 7.28H5.54V7.92H6.18V8.56H6.82V9.2H8.1V8.56H7.46V7.92H6.82V7.28ZM0.1 14V-9.53674e-07H3.1L3.34 0.24H3.62V0.52L4.62 1.52H4.9V1.8L5.1 2V3H6.1V3.44H6.18V4.08L6.1 4V3.44H5.54V5.36H6.18V4.08L7.1 5V6H6.82V6.64H7.46V7.28H8.1V7.92H8.74V9.2H9.38V9.68H10.18V9.84H10.66V9.2H10.02V8.56H9.38V7.28H8.74V6.64H8.1V5.36H9.38V4.72H8.74V0.24H8.1V-9.53674e-07H12.1V14H8.1L6.1 12V11L5.58 10.48H5.54V10.44L4.94 9.84H4.9V9.8L4.3 9.2H4.26V9.16L4.1 9V10.48H4.26V11.12H4.1V10.48H3.62V0.52L3.34 0.24H2.98V11.12H4.1V11.76H4.26V12.4H4.1V11.76H2.98V12.4H4.1V13.04H4.26V13.68H4.1V13.04H1.06V0.24H0.42V13.68H4.1V14H0.1ZM11.94 11.12V10.48H11.3V9.84H10.18V10.48H10.66V11.12H11.94ZM11.94 12.4V11.76H10.66V12.4H11.94ZM11.94 13.68V13.04H8.74V12.56H7.46V12.4H7.3V11.76H8.1V12.4H8.74V11.12H7.46V11.76H7.3V11.12H6.82V9.84H6.18V9.2H5.54V8.56H4.9V1.8L4.62 1.52H4.26V9.16L4.3 9.2H4.9V9.8L4.94 9.84H5.54V10.44L5.58 10.48H6.18V11.76H6.82V12.4H7.3V12.56H7.46V13.04H8.1V13.68H11.94ZM9.38 9.84V9.68H8.74V10.48H9.38V11.12H10.18V10.48H10.02V9.84H9.38Z" fill="#FF0000"/>
</svg>
